PathFileType	4	(X/Y/Z)	 s08c0102.trc
DataRate	CameraRate	NumFrames	NumMarkers	Units	OrigDataRate	OrigDataStartFrame	OrigNumFrames
200	200	5	50	mm	200	1251	2000
Frame#	Time	racr			lacr			c7			jug			rlel			rdr			llel			ldr			s2			lic			ric			lasi			rasi			rpsi			lpsi			rgt			lgt			rth1			rth2			rth3			rth4			rlfc			rmfc			rsh1			rsh2			rsh3			rsh4			rlmal			rmmal			rcal			rtoe			rmt5			lth1			lth2			lth4			lth3			llfc			lmfc			llmal			lmmal			lcal			lmt5			lsh1			lsh2			lsh3			lsh4			ltoe			SBIKE			LBIKE			RBIKE			
		X1	Y1	Z1	X2	Y2	Z2	X3	Y3	Z3	X4	Y4	Z4	X5	Y5	Z5	X6	Y6	Z6	X7	Y7	Z7	X8	Y8	Z8	X9	Y9	Z9	X10	Y10	Z10	X11	Y11	Z11	X12	Y12	Z12	X13	Y13	Z13	X14	Y14	Z14	X15	Y15	Z15	X16	Y16	Z16	X17	Y17	Z17	X18	Y18	Z18	X19	Y19	Z19	X20	Y20	Z20	X21	Y21	Z21	X22	Y22	Z22	X23	Y23	Z23	X24	Y24	Z24	X25	Y25	Z25	X26	Y26	Z26	X27	Y27	Z27	X28	Y28	Z28	X29	Y29	Z29	X30	Y30	Z30	X31	Y31	Z31	X32	Y32	Z32	X33	Y33	Z33	X34	Y34	Z34	X35	Y35	Z35	X36	Y36	Z36	X37	Y37	Z37	X38	Y38	Z38	X39	Y39	Z39	X40	Y40	Z40	X41	Y41	Z41	X42	Y42	Z42	X43	Y43	Z43	X44	Y44	Z44	X45	Y45	Z45	X46	Y46	Z46	X47	Y47	Z47	X48	Y48	Z48	X49	Y49	Z49	X50	Y50	Z50	
1251	6.2550	542.946054	1356.485905	-36.723136	590.340428	1347.122119	-336.797131	539.841598	1409.626122	-191.196637	515.145098	1252.304198	-182.818545	563.403699	1095.393375	44.983733	796.862855	911.104350	-38.454877	630.125335	1103.031014	-470.986458	813.847062	891.861393	-404.978154	-24.431187	1224.757754	-260.503176	149.586608	1210.598376	-385.756742	111.943233	1238.194537	-78.344468	162.103917	1162.210534	-348.158853	147.241140	1176.707279	-104.077184	1.198737	1269.039736	-208.372698	10.887346	1267.997624	-303.166291	48.408139	1131.321577	-51.849522	93.033159	1095.354900	-425.175268	180.765847	1012.058915	-38.260683	259.691649	971.445756	-36.179187	307.731376	898.873338	-43.220877	284.124540	998.552326	-43.581383	394.361129	811.937273	-56.354957	381.392308	797.662708	-167.521355	350.223604	685.868115	-28.200028	364.197497	598.177511	-44.353574	332.249857	518.046302	-50.830219	393.073834	599.309564	-72.912793	311.895176	398.595352	-58.881638	326.199751	422.756573	-146.271414	240.334124	350.615566	-104.398890	530.415858	412.412209	-91.928307	451.401389	358.266674	-29.200925	182.082427	997.816186	-420.990934	253.017179	947.687435	-411.220328	278.028246	969.199812	-395.550153	291.208127	867.082665	-411.446759	340.107180	747.252932	-392.996862	329.471968	719.281131	-286.272572	80.271672	418.636409	-399.855378	113.085737	418.625798	-314.128910	17.953623	435.201259	-357.807656	147.851189	263.314806	-415.010782	265.727566	642.093939	-417.529185	230.629149	568.241191	-403.446162	160.106747	512.010497	-403.813091	248.181021	555.338059	-366.854947	230.296364	238.080633	-346.102821	-139.587662	941.728772	-223.500055	20.648823	83.914627	-426.553340	12.576130	80.061544	-28.323676	
1252	6.2600	544.205163	1356.261608	-37.142016	589.932943	1345.848431	-338.287780	540.367907	1408.922446	-192.334919	515.371076	1251.692597	-183.164624	563.005430	1094.100921	44.560775	797.230126	910.326692	-38.659196	630.608885	1101.909154	-471.667239	814.334488	891.881817	-404.927470	-24.379263	1222.342160	-258.393035	149.152785	1209.403085	-383.872220	113.645451	1234.806816	-76.161882	162.039536	1161.211927	-346.160417	148.531435	1174.573256	-102.661738	1.704989	1266.009341	-205.745690	10.703034	1265.757794	-300.711210	48.648919	1126.839158	-50.381150	94.570776	1094.728530	-424.021225	179.525556	1005.360456	-37.266568	257.893404	963.629195	-35.463767	304.706043	890.491882	-42.792933	282.861884	990.495267	-42.493199	390.928207	802.631771	-56.273611	377.470004	788.269119	-167.265920	348.057180	676.019782	-27.855150	363.254719	588.578470	-43.965417	332.601130	507.919857	-50.633603	392.259209	589.969316	-72.462574	313.897466	387.980804	-58.523903	328.053649	412.499419	-145.793313	242.520742	340.014386	-104.426468	532.729003	401.474107	-91.885579	453.711090	347.479718	-29.078041	184.644930	998.883672	-420.209525	256.862550	950.523484	-410.806198	280.807605	971.881716	-393.617999	296.563538	870.365708	-410.888301	347.387257	751.811578	-391.618241	335.605334	723.768714	-283.918309	80.677378	429.341821	-399.191692	112.919090	428.985720	-313.704754	18.159628	446.981036	-357.601772	146.027297	273.710077	-414.915716	271.257957	648.369709	-416.615276	234.330730	575.277962	-402.647096	162.566761	520.834719	-403.159610	251.619073	562.261872	-366.044974	228.168578	247.482244	-346.046313	-139.605308	941.614759	-223.459630	20.721674	83.952225	-426.492609	12.627762	80.039630	-28.295763	
1253	6.2650	545.382560	1356.120119	-37.694824	589.361103	1344.832452	-340.075055	540.673818	1408.598242	-193.478517	515.362935	1251.449577	-183.799522	563.016246	1093.205983	44.702798	797.446258	909.527105	-38.737415	630.725537	1101.031032	-472.622587	814.478002	892.063764	-405.085940	-24.472527	1220.037806	-255.443048	148.658490	1208.363991	-381.645079	115.500735	1231.505586	-73.782844	162.040195	1160.354098	-344.112438	149.948805	1172.398841	-101.184789	2.310446	1262.921000	-202.860889	10.672625	1263.504875	-297.825363	49.179331	1122.267239	-48.903692	96.013749	1094.228940	-422.740230	178.686323	998.738549	-36.231438	256.410328	955.811354	-34.481277	301.787837	881.743260	-42.586789	281.809400	982.373115	-40.943745	387.207859	793.160689	-56.392219	373.462581	778.511572	-166.916004	345.584527	665.826868	-27.382282	361.963798	578.629640	-43.656080	332.640770	497.644970	-50.208776	391.153031	580.476551	-71.844446	315.444969	377.268007	-58.253607	329.463610	402.061331	-145.423446	244.113449	329.647458	-104.395509	534.487046	390.240913	-92.052937	455.419837	336.515348	-28.968490	187.139700	999.845128	-419.535763	260.318882	953.030590	-409.891702	283.638471	974.780119	-392.168364	301.868118	873.741736	-410.246646	354.483248	756.839413	-390.604649	342.038719	728.679428	-281.828489	81.185948	440.431701	-398.874945	114.274804	439.271162	-313.884225	18.694923	458.704511	-357.401713	144.817168	284.237244	-414.756533	276.952227	654.829675	-415.513370	238.213076	582.655346	-401.813595	165.314810	529.772681	-402.515605	255.130042	569.022540	-365.172158	226.662260	257.070367	-345.965456	-139.617380	941.630672	-223.301218	20.749742	83.994429	-426.448865	12.643483	80.056232	-28.230642	
1254	6.2700	546.531981	1356.051993	-38.211639	588.637915	1344.054073	-342.053398	540.794131	1408.646495	-194.732153	515.207012	1251.562309	-184.744588	564.381227	1092.917655	45.574504	797.465178	908.820652	-38.895347	630.215207	1100.412531	-473.828479	814.291981	892.342408	-405.476608	-24.415885	1217.826806	-253.038069	148.221278	1207.449494	-379.348863	117.563102	1228.125693	-71.360342	162.075484	1159.567309	-341.831611	151.495417	1170.192677	-99.647810	3.153811	1260.043448	-199.988568	10.837386	1261.352172	-294.779359	50.002671	1117.703209	-47.288288	97.373905	1093.883376	-421.303023	177.955836	991.904656	-35.326143	255.143655	947.763871	-33.658956	298.461575	872.882738	-42.531851	280.843267	973.799986	-39.414003	383.098013	783.313356	-56.741682	370.085142	769.062403	-166.459507	342.639347	655.439504	-26.933415	360.408674	568.491496	-43.330612	332.211768	487.046986	-49.965646	389.626373	570.754010	-71.399897	316.435207	366.661504	-57.841486	330.080911	391.779683	-144.934174	244.943789	319.421420	-104.080373	535.652179	378.706460	-92.235229	456.240572	324.989230	-29.546710	189.553172	1000.744211	-419.042966	263.742155	955.558211	-409.062341	286.538391	977.698097	-390.865184	307.103725	877.320815	-409.655301	361.564805	762.227243	-389.689017	348.716111	733.987409	-279.991760	82.150628	451.509020	-398.677799	115.446412	449.555426	-313.619053	19.598981	470.496309	-357.254176	144.167443	294.951264	-414.707859	282.514002	661.714800	-414.996430	242.154717	590.298556	-401.012464	168.279664	539.002238	-401.918887	258.830738	576.198187	-364.297768	225.830603	267.137008	-345.946237	-139.638423	941.643192	-223.178739	20.795962	84.101104	-426.360304	12.658191	80.006934	-28.218779	
1255	6.2750	547.693774	1356.165152	-39.260126	587.601192	1343.748756	-344.380247	540.681011	1409.064156	-196.141587	514.934736	1252.010548	-186.088932	567.514470	1093.146522	46.754142	797.394063	907.940082	-39.104381	629.595633	1100.238970	-475.274083	813.910785	892.604987	-405.910110	-23.972026	1215.576477	-250.043679	147.890601	1206.571979	-376.908139	119.815334	1224.981322	-68.840536	162.080996	1158.716508	-339.417710	153.173438	1167.963405	-98.052273	4.366132	1257.211323	-197.077033	10.732207	1259.590029	-291.208985	51.121247	1112.990609	-45.546069	98.654980	1093.721704	-419.759921	177.480646	985.194771	-34.240996	253.775413	939.018097	-33.713044	295.632912	863.877749	-42.482346	279.971682	965.115426	-38.025839	379.075997	773.330297	-56.848791	363.990904	756.925614	-165.576099	339.711049	645.035494	-26.616926	358.474733	558.332693	-42.999737	331.327640	476.397649	-49.639860	387.706041	560.840566	-71.093404	316.822329	356.140369	-57.214544	330.313223	381.919585	-144.095470	245.606837	308.794618	-104.095585	536.210387	367.127806	-92.419275	456.567795	313.720976	-29.780705	191.845918	1001.747330	-418.814065	267.063274	958.316638	-408.661157	289.305459	981.071384	-390.433112	312.213514	881.206090	-408.996501	368.598103	767.880623	-388.903742	355.581500	739.666794	-278.396771	83.556392	462.598067	-398.319050	108.081472	457.745210	-318.601720	20.959376	482.058793	-357.074086	144.260448	305.701542	-414.620464	288.262106	668.539169	-413.980107	246.328978	598.266012	-400.428743	171.344637	548.464840	-401.380848	262.744614	583.634554	-363.695752	225.652309	277.333368	-345.865508	-139.653608	941.654570	-223.097359	20.773704	84.086627	-426.362137	12.656561	80.020056	-28.236445	
